<svg width="512" height="512" viewBox="0 0 512 512" xmlns="http://www.w3.org/2000/svg">
  <!-- Fond circulaire -->
  <circle cx="256" cy="256" r="256" fill="#E6F2FF"></circle>

  <!-- Bulle de dialogue (transcription) -->
  <rect x="120" y="120" rx="24" ry="24" width="260" height="180" fill="#ffffff" stroke="#2F80ED" stroke-width="6"></rect>
  <path d="M210 300 L230 260 L260 290 Z" fill="#ffffff" stroke="#2F80ED" stroke-width="6"></path>
  <line x1="145" y1="155" x2="345" y2="155" stroke="#2F80ED" stroke-width="6" stroke-linecap="round"></line>
  <line x1="145" y1="185" x2="315" y2="185" stroke="#2F80ED" stroke-width="6" stroke-linecap="round"></line>
  <line x1="145" y1="215" x2="285" y2="215" stroke="#2F80ED" stroke-width="6" stroke-linecap="round"></line>

  <!-- Femme médecin stylisée -->
  <!-- Tête -->
  <circle cx="260" cy="320" r="52" fill="#FFE6D5"></circle>
  <!-- Cheveux -->
  <path d="M210 320 C210 280 310 280 310 320 C310 360 300 380 260 380 C220 380 210 360 210 320 Z" fill="#4C3B73"></path>
  <!-- Corps/blouse -->
  <path d="M210 380 L310 380 L335 460 L185 460 Z" fill="#FFFFFF" stroke="#CCCCCC" stroke-width="4"></path>
  <!-- Col de la blouse -->
  <path d="M235 380 L285 380 L270 410 L250 410 Z" fill="#E6F2FF"></path>
  <!-- Stéthoscope -->
  <path d="M230 340 C220 370 220 395 240 410" fill="none" stroke="#2F80ED" stroke-width="5"></path>
  <path d="M290 340 C300 370 300 395 280 410" fill="none" stroke="#2F80ED" stroke-width="5"></path>
  <circle cx="240" cy="410" r="7" fill="#2F80ED"></circle>
  <circle cx="280" cy="410" r="7" fill="#2F80ED"></circle>

  <!-- Petites ondes audio en bas -->
  <path d="M140 440 Q190 420 240 440 T340 440 T420 440" fill="none" stroke="#2F80ED" stroke-width="5" stroke-linecap="round"></path>

  <!-- Petit texte LiloMedScript (optionnel, tu peux l'enlever si tu veux un logo sans texte) -->
  <text x="50%" y="95%" text-anchor="middle" fill="#2F80ED" font-family="sans-serif" font-size="32" font-weight="bold">
    LiloMedScript
  </text>
</svg>
